HIERARCHY
ROOT RootJoint
{
    OFFSET   0.000000   0.000000   0.000000
    CHANNELS 6 Xposition Yposition Zposition Xrotation Yrotation Zrotation
    JOINT pelvis_lowerback
    {
        OFFSET   0.000000   0.093605   0.000000
        CHANNELS 3 Xrotation Yrotation Zrotation
        JOINT lowerback_torso
        {
            OFFSET   0.000000   0.100000   0.000000
            CHANNELS 3 Xrotation Yrotation Zrotation
            JOINT torso_head
            {
                OFFSET   0.000000   0.282350   0.000000
                CHANNELS 3 Xrotation Yrotation Zrotation
                End Site
                {
                    OFFSET   0.000000   0.192650   0.000000
                }
            }
            JOINT rTorso_Clavicle
            {
                OFFSET  -0.001000   0.157500   0.000000
                CHANNELS 3 Xrotation Yrotation Zrotation
                JOINT rShoulder
                {
                    OFFSET  -0.117647   0.000000   0.000000
                    CHANNELS 3 Xrotation Yrotation Zrotation
                    JOINT rElbow
                    {
                        OFFSET  -0.245000   0.000000   0.000000
                        CHANNELS 3 Xrotation Yrotation Zrotation
                        JOINT rWrist
                        {
                            OFFSET  -0.240000   0.000000   0.000000
                            CHANNELS 3 Xrotation Yrotation Zrotation
                            End Site
                            {
                                OFFSET  -0.116353  -0.002500   0.000000
                            }
                        }
                    }
                }
            }
            JOINT lTorso_Clavicle
            {
                OFFSET   0.001000   0.157500   0.000000
                CHANNELS 3 Xrotation Yrotation Zrotation
                JOINT lShoulder
                {
                    OFFSET   0.117647   0.000000   0.000000
                    CHANNELS 3 Xrotation Yrotation Zrotation
                    JOINT lElbow
                    {
                        OFFSET   0.245000   0.000000   0.000000
                        CHANNELS 3 Xrotation Yrotation Zrotation
                        JOINT lWrist
                        {
                            OFFSET   0.240000   0.000000   0.000000
                            CHANNELS 3 Xrotation Yrotation Zrotation
                            End Site
                            {
                                OFFSET   0.116353  -0.002500   0.000000
                            }
                        }
                    }
                }
            }
        }
    }
    JOINT rHip
    {
        OFFSET  -0.100000  -0.051395   0.000000
        CHANNELS 3 Xrotation Yrotation Zrotation
        JOINT rKnee
        {
            OFFSET   0.000000  -0.410000   0.000000
            CHANNELS 3 Xrotation Yrotation Zrotation
            JOINT rAnkle
            {
                OFFSET   0.000000  -0.390000   0.000000
                CHANNELS 3 Xrotation Yrotation Zrotation
                JOINT rToeJoint
                {
                    OFFSET   0.000000  -0.050000   0.130000
                    CHANNELS 3 Xrotation Yrotation Zrotation
                    End Site
                    {
                        OFFSET  -0.010000   0.002000   0.060000
                    }
                }
            }
        }
    }
    JOINT lHip
    {
        OFFSET   0.100000  -0.051395   0.000000
        CHANNELS 3 Xrotation Yrotation Zrotation
        JOINT lKnee
        {
            OFFSET   0.000000  -0.410000   0.000000
            CHANNELS 3 Xrotation Yrotation Zrotation
            JOINT lAnkle
            {
                OFFSET   0.000000  -0.390000   0.000000
                CHANNELS 3 Xrotation Yrotation Zrotation
                JOINT lToeJoint
                {
                    OFFSET   0.000000  -0.050000   0.130000
                    CHANNELS 3 Xrotation Yrotation Zrotation
                    End Site
                    {
                        OFFSET   0.010000   0.002000   0.060000
                    }
                }
            }
        }
    }
}
MOTION
Frames: 8
Frame Time:   0.008333
 -2.229088   0.917047   5.102419  -0.030106  -4.575691  -1.238434   2.802676   1.203443  -3.527181   3.292659  -0.808073   3.538307  -0.901120   1.697498   3.247169   2.329935   1.502591   9.574707   9.143451  19.730876  45.582694  -0.009229  23.060473   0.001423  11.405167   2.435952   6.339630  -1.107175  -3.052469  -5.765860   8.809135 -16.350371 -42.701170  -0.010983 -16.721001  -0.004211   9.524690  -5.009060  -4.248248 -15.024459   2.020665  -7.800932  81.144698  -0.005098  -0.001004  -0.910328   1.721579   6.480949  -3.342604  -0.001548  -0.002931  -7.599601  -4.077194  -1.356698  15.661888  -0.000825  -0.000945  -8.099134  -0.388886   5.746016   0.025718  -0.000084  -0.000004
 -2.228286   0.917350   5.106327  -0.129131  -4.422539  -1.338988   2.873757   1.105724  -3.433069   3.187814  -0.835507   3.549379  -0.763138   1.662621   3.276319   2.209965   1.626272   9.569560   8.823568  19.856624  45.454423  -0.009693  23.707900   0.001942  11.382197   2.424943   6.215497  -1.170851  -3.167620  -5.675116   8.330816 -16.496672 -42.389979  -0.011628 -17.179294  -0.004587   9.549412  -4.969311  -4.021531 -15.846053   1.897130  -7.685972  81.532466  -0.004365  -0.000690  -1.278269   1.447307   6.512053  -3.233698  -0.001325  -0.002486  -7.129609  -4.042705  -1.308228  15.453197  -0.000844  -0.001094  -8.213823  -0.583514   5.647057  -0.015437  -0.000130  -0.000003
 -2.227498   0.917657   5.110135  -0.226221  -4.275575  -1.445141   2.955306   1.008482  -3.334180   3.085346  -0.864140   3.565824  -0.627309   1.628843   3.305381   2.075390   1.756955   9.555640   8.506545  19.988739  45.330897  -0.009950  24.325484   0.002294  11.351511   2.479697   6.061214  -1.247805  -3.289845  -5.581192   7.869492 -16.649839 -42.095551  -0.011968 -17.619995  -0.004734   9.568153  -4.996679  -3.777877 -16.682213   1.779541  -7.570384  81.805203  -0.003685  -0.000478  -1.627199   1.190595   6.539623  -3.149486  -0.001125  -0.002078  -6.661057  -4.011669  -1.250946  15.231769  -0.000861  -0.001216  -8.317325  -0.768946   5.553392  -0.054743  -0.000161  -0.000002
 -2.226729   0.917934   5.113905  -0.328823  -4.122938  -1.548705   3.040114   0.910707  -3.238554   2.989489  -0.896104   3.584953  -0.497481   1.597144   3.333194   1.938562   1.888067   9.537960   8.202041  20.119495  45.212983  -0.009979  24.906611   0.002488  11.319061   2.562089   5.894015  -1.330779  -3.417129  -5.486928   7.430583 -16.803413 -41.816673  -0.012018 -18.036277  -0.004735   9.584378  -5.053773  -3.527528 -17.510203   1.671013  -7.463420  82.020361  -0.003069  -0.000322  -1.954760   0.950770   6.564111  -3.077112  -0.000946  -0.001723  -6.193590  -3.990140  -1.195643  15.018398  -0.000863  -0.001292  -8.423280  -0.949356   5.463508  -0.092727  -0.000182  -0.000001
 -2.225981   0.918172   5.117671  -0.437491  -3.960518  -1.647669   3.122285   0.813338  -3.147269   2.899812  -0.931403   3.605028  -0.374823   1.567482   3.359464   1.806624   2.014068   9.519117   7.914703  20.244592  45.101674  -0.009809  25.450715   0.002561  11.287091   2.652666   5.724736  -1.414742  -3.544323  -5.395222   7.016115 -16.953855 -41.554198  -0.011831 -18.427593  -0.004659   9.599468  -5.124244  -3.277178 -18.317157   1.572580  -7.366453  82.200547  -0.002523  -0.000201  -2.261426   0.726705   6.585841  -3.013650  -0.000787  -0.001419  -5.727629  -3.979292  -1.144393  14.819335  -0.000848  -0.001327  -8.536536  -1.127436   5.375404  -0.129871  -0.000197  -0.000000
 -2.225256   0.918370   5.121450  -0.550571  -3.787716  -1.741657   3.198211   0.717620  -3.060272   2.815158  -0.969167   3.625241  -0.259912   1.539757   3.384194   1.683078   2.132173   9.500331   7.646331  20.362028  44.997399  -0.009480  25.958777   0.002541  11.256484   2.742266   5.559428  -1.496433  -3.667916  -5.307902   6.626763 -17.098998 -41.308718  -0.011461 -18.794408  -0.004546   9.613886  -5.200638  -3.031731 -19.096202   1.484075  -7.279139  82.356435  -0.002047  -0.000105  -2.548195   0.517365   6.605124  -2.957513  -0.000647  -0.001162  -5.264329  -3.978926  -1.097050  14.635675  -0.000821  -0.001331  -8.658465  -1.304104   5.288243  -0.166349  -0.000206  -0.000000
 -2.224555   0.918530   5.125245  -0.665805  -3.605409  -1.830768   3.266089   0.624679  -2.977358   2.734537  -1.008299   3.645167  -0.152894   1.513858   3.407469   1.569240   2.241360   9.482156   7.397099  20.471127  44.900129  -0.009036  26.432488   0.002451  11.227555   2.826714   5.401102  -1.573908  -3.785810  -5.225884   6.262360 -17.237557 -41.080176  -0.010957 -19.137601  -0.004412   9.627833  -5.278857  -2.794471 -19.843736   1.404806  -7.200733  82.493918  -0.001637  -0.000029  -2.816202   0.321796   6.622250  -2.907614  -0.000524  -0.000945  -4.805308  -3.988272  -1.052895  14.466745  -0.000784  -0.001311  -8.788947  -1.479454   5.201732  -0.202202  -0.000212   0.000000
 -2.223843   0.918712   5.129080  -0.773243  -3.446388  -1.958662   3.327248   0.548799  -2.869133   2.651752  -1.025414   3.696615  -0.021210   1.485278   3.440859   1.469964   2.321179   9.437429   7.165507  20.580906  44.817317  -0.008589  26.907520   0.002346  11.182072   2.886304   5.228898  -1.620653  -3.850484  -5.177465   5.890446 -17.438106 -40.875481  -0.010910 -19.587061  -0.004526   9.645990  -5.246416  -2.555226 -20.478327   1.370869  -7.076510  82.052107  -0.001514  -0.000239  -3.009976   0.092070   6.675900  -2.866129  -0.000421  -0.000758  -4.360975  -3.976826  -0.967781  14.329769  -0.000731  -0.001247  -8.948282  -1.655028   5.148908  -0.230104  -0.000198   0.000000
